<?xml version="1.0" standalone="no"?>
<!DOCTYPE svg PUBLIC "-//W3C//DTD SVG 20010904//EN"
 "http://www.w3.org/TR/2001/REC-SVG-20010904/DTD/svg10.dtd">
<svg version="1.0" xmlns="http://www.w3.org/2000/svg"
 width="512.000000pt" height="512.000000pt" viewBox="0 0 512.000000 512.000000"
 preserveAspectRatio="xMidYMid meet">
<metadata>
Created by potrace 1.11, written by Peter Selinger 2001-2013
</metadata>
<g transform="translate(0.000000,512.000000) scale(0.100000,-0.100000)"
fill="#000000" stroke="none">
<path d="M20 4873 l1 -228 24 62 c65 169 199 303 368 368 l62 24 -227 1 -228
0 0 -227z"/>
<path d="M867 5075 c169 -65 303 -199 368 -368 l24 -62 1 228 0 227 -227 0
-228 -1 62 -24z"/>
<path d="M1300 4873 l1 -228 24 62 c65 169 199 303 368 368 l62 24 -227 1
-228 0 0 -227z"/>
<path d="M2147 5075 c169 -65 303 -199 368 -368 l24 -62 1 228 0 227 -227 0
-228 -1 62 -24z"/>
<path d="M2580 4873 l1 -228 24 62 c13 34 40 87 60 118 71 111 183 202 308
250 l62 24 -227 1 -228 0 0 -227z"/>
<path d="M3427 5075 c169 -65 303 -199 368 -368 l24 -62 1 228 0 227 -227 0
-228 -1 62 -24z"/>
<path d="M3860 4873 l1 -228 24 62 c13 34 40 87 60 118 71 111 183 202 308
250 l62 24 -227 1 -228 0 0 -227z"/>
<path d="M4707 5075 c169 -65 303 -199 368 -368 l24 -62 1 228 0 227 -227 0
-228 -1 62 -24z"/>
<path d="M497 5065 c-282 -72 -469 -324 -454 -615 12 -251 166 -455 407 -541
55 -20 85 -24 190 -24 105 0 135 4 190 24 181 64 317 200 381 381 20 55 24 85
24 190 0 105 -4 135 -24 190 -65 182 -202 319 -381 381 -83 28 -248 35 -333
14z"/>
<path d="M1777 5065 c-282 -72 -469 -324 -454 -615 12 -251 166 -455 407 -541
55 -20 85 -24 190 -24 105 0 135 4 190 24 181 64 317 200 381 381 20 55 24 85
24 190 0 105 -4 135 -24 190 -65 182 -202 319 -381 381 -83 28 -248 35 -333
14z"/>
<path d="M3057 5065 c-282 -72 -469 -324 -454 -615 12 -251 166 -455 407 -541
55 -20 85 -24 190 -24 105 0 135 4 190 24 135 48 252 142 323 257 65 108 82
173 82 314 0 105 -4 135 -24 190 -65 182 -202 319 -381 381 -83 28 -248 35
-333 14z"/>
<path d="M4337 5065 c-282 -72 -469 -324 -454 -615 12 -251 166 -455 407 -541
55 -20 85 -24 190 -24 105 0 135 4 190 24 135 48 252 142 323 257 65 108 82
173 82 314 0 105 -4 135 -24 190 -65 182 -202 319 -381 381 -83 28 -248 35
-333 14z"/>
<path d="M20 4088 l0 -228 228 0 227 1 -62 24 c-169 65 -303 199 -368 368
l-24 62 -1 -227z"/>
<path d="M1236 4258 c-57 -164 -199 -308 -369 -373 l-62 -24 228 -1 227 0 0
225 c0 124 -1 225 -3 225 -1 0 -11 -24 -21 -52z"/>
<path d="M1300 4088 l0 -228 228 0 227 1 -62 24 c-169 65 -303 199 -368 368
l-24 62 -1 -227z"/>
<path d="M2516 4258 c-57 -164 -199 -308 -369 -373 l-62 -24 228 -1 227 0 0
225 c0 124 -1 225 -3 225 -1 0 -11 -24 -21 -52z"/>
<path d="M2580 4088 l0 -228 228 0 227 1 -62 24 c-169 65 -303 199 -368 368
l-24 62 -1 -227z"/>
<path d="M3796 4258 c-57 -164 -199 -308 -369 -373 l-62 -24 228 -1 227 0 0
225 c0 124 -1 225 -3 225 -1 0 -11 -24 -21 -52z"/>
<path d="M3860 4088 l0 -228 228 0 227 1 -62 24 c-169 65 -303 199 -368 368
l-24 62 -1 -227z"/>
<path d="M5076 4258 c-57 -164 -199 -308 -369 -373 l-62 -24 228 -1 227 0 0
225 c0 124 -1 225 -3 225 -1 0 -11 -24 -21 -52z"/>
<path d="M20 3593 l1 -228 24 62 c65 169 199 303 368 368 l62 24 -227 1 -228
0 0 -227z"/>
<path d="M867 3795 c169 -65 303 -199 368 -368 l24 -62 1 228 0 227 -227 0
-228 -1 62 -24z"/>
<path d="M1300 3593 l1 -228 24 62 c65 169 199 303 368 368 l62 24 -227 1
-228 0 0 -227z"/>
<path d="M2147 3795 c169 -65 303 -199 368 -368 l24 -62 1 228 0 227 -227 0
-228 -1 62 -24z"/>
<path d="M2580 3593 l1 -228 24 62 c13 34 40 87 60 118 71 111 183 202 308
250 l62 24 -227 1 -228 0 0 -227z"/>
<path d="M3427 3795 c169 -65 303 -199 368 -368 l24 -62 1 228 0 227 -227 0
-228 -1 62 -24z"/>
<path d="M3860 3593 l1 -228 24 62 c13 34 40 87 60 118 71 111 183 202 308
250 l62 24 -227 1 -228 0 0 -227z"/>
<path d="M4707 3795 c169 -65 303 -199 368 -368 l24 -62 1 228 0 227 -227 0
-228 -1 62 -24z"/>
<path d="M497 3785 c-282 -72 -469 -324 -454 -615 12 -251 166 -455 407 -541
55 -20 85 -24 190 -24 105 0 135 4 190 24 181 64 317 200 381 381 20 55 24 85
24 190 0 105 -4 135 -24 190 -65 182 -202 319 -381 381 -83 28 -248 35 -333
14z"/>
<path d="M1777 3785 c-282 -72 -469 -324 -454 -615 12 -251 166 -455 407 -541
55 -20 85 -24 190 -24 105 0 135 4 190 24 181 64 317 200 381 381 20 55 24 85
24 190 0 105 -4 135 -24 190 -65 182 -202 319 -381 381 -83 28 -248 35 -333
14z"/>
<path d="M3057 3785 c-282 -72 -469 -324 -454 -615 12 -251 166 -455 407 -541
55 -20 85 -24 190 -24 105 0 135 4 190 24 135 48 252 142 323 257 65 108 82
173 82 314 0 105 -4 135 -24 190 -65 182 -202 319 -381 381 -83 28 -248 35
-333 14z"/>
<path d="M4337 3785 c-282 -72 -469 -324 -454 -615 12 -251 166 -455 407 -541
55 -20 85 -24 190 -24 105 0 135 4 190 24 135 48 252 142 323 257 65 108 82
173 82 314 0 105 -4 135 -24 190 -65 182 -202 319 -381 381 -83 28 -248 35
-333 14z"/>
<path d="M20 2808 l0 -228 228 0 227 1 -62 24 c-169 65 -303 199 -368 368
l-24 62 -1 -227z"/>
<path d="M1236 2978 c-57 -164 -199 -308 -369 -373 l-62 -24 228 -1 227 0 0
225 c0 124 -1 225 -3 225 -1 0 -11 -24 -21 -52z"/>
<path d="M1300 2808 l0 -228 228 0 227 1 -62 24 c-169 65 -303 199 -368 368
l-24 62 -1 -227z"/>
<path d="M2516 2978 c-57 -164 -199 -308 -369 -373 l-62 -24 228 -1 227 0 0
225 c0 124 -1 225 -3 225 -1 0 -11 -24 -21 -52z"/>
<path d="M2580 2808 l0 -228 228 0 227 1 -62 24 c-169 65 -303 199 -368 368
l-24 62 -1 -227z"/>
<path d="M3796 2978 c-57 -164 -199 -308 -369 -373 l-62 -24 228 -1 227 0 0
225 c0 124 -1 225 -3 225 -1 0 -11 -24 -21 -52z"/>
<path d="M3860 2808 l0 -228 228 0 227 1 -62 24 c-169 65 -303 199 -368 368
l-24 62 -1 -227z"/>
<path d="M5076 2978 c-57 -164 -199 -308 -369 -373 l-62 -24 228 -1 227 0 0
225 c0 124 -1 225 -3 225 -1 0 -11 -24 -21 -52z"/>
<path d="M20 2313 l1 -228 24 62 c65 169 199 303 368 368 l62 24 -227 1 -228
0 0 -227z"/>
<path d="M867 2515 c169 -65 303 -199 368 -368 l24 -62 1 228 0 227 -227 0
-228 -1 62 -24z"/>
<path d="M1300 2313 l1 -228 24 62 c65 169 199 303 368 368 l62 24 -227 1
-228 0 0 -227z"/>
<path d="M2147 2515 c169 -65 303 -199 368 -368 l24 -62 1 228 0 227 -227 0
-228 -1 62 -24z"/>
<path d="M2580 2313 l1 -228 24 62 c65 169 199 303 368 368 l62 24 -227 1
-228 0 0 -227z"/>
<path d="M3427 2515 c169 -65 303 -199 368 -368 l24 -62 1 228 0 227 -227 0
-228 -1 62 -24z"/>
<path d="M3860 2313 l1 -228 24 62 c65 169 199 303 368 368 l62 24 -227 1
-228 0 0 -227z"/>
<path d="M4707 2515 c169 -65 303 -199 368 -368 l24 -62 1 228 0 227 -227 0
-228 -1 62 -24z"/>
<path d="M497 2505 c-282 -72 -469 -324 -454 -615 12 -251 166 -455 407 -541
55 -20 85 -24 190 -24 105 0 135 4 190 24 181 64 317 200 381 381 20 55 24 85
24 190 0 105 -4 135 -24 190 -65 182 -202 319 -381 381 -83 28 -248 35 -333
14z"/>
<path d="M1777 2505 c-282 -72 -469 -324 -454 -615 12 -251 166 -455 407 -541
55 -20 85 -24 190 -24 105 0 135 4 190 24 181 64 317 200 381 381 20 55 24 85
24 190 0 105 -4 135 -24 190 -65 182 -202 319 -381 381 -83 28 -248 35 -333
14z"/>
<path d="M3057 2505 c-282 -72 -469 -324 -454 -615 12 -251 166 -455 407 -541
55 -20 85 -24 190 -24 105 0 135 4 190 24 181 64 317 200 381 381 20 55 24 85
24 190 0 105 -4 135 -24 190 -65 182 -202 319 -381 381 -83 28 -248 35 -333
14z"/>
<path d="M4337 2505 c-282 -72 -469 -324 -454 -615 12 -251 166 -455 407 -541
55 -20 85 -24 190 -24 105 0 135 4 190 24 181 64 317 200 381 381 20 55 24 85
24 190 0 105 -4 135 -24 190 -65 182 -202 319 -381 381 -83 28 -248 35 -333
14z"/>
<path d="M20 1528 l0 -228 228 0 227 1 -62 24 c-125 48 -237 139 -308 250 -20
31 -47 84 -60 118 l-24 62 -1 -227z"/>
<path d="M1236 1698 c-57 -164 -199 -308 -369 -373 l-62 -24 228 -1 227 0 0
225 c0 124 -1 225 -3 225 -1 0 -11 -24 -21 -52z"/>
<path d="M1300 1528 l0 -228 228 0 227 1 -62 24 c-169 65 -303 199 -368 368
l-24 62 -1 -227z"/>
<path d="M2516 1698 c-57 -164 -199 -308 -369 -373 l-62 -24 228 -1 227 0 0
225 c0 124 -1 225 -3 225 -1 0 -11 -24 -21 -52z"/>
<path d="M2580 1528 l0 -228 228 0 227 1 -62 24 c-169 65 -303 199 -368 368
l-24 62 -1 -227z"/>
<path d="M3796 1698 c-57 -164 -199 -308 -369 -373 l-62 -24 228 -1 227 0 0
225 c0 124 -1 225 -3 225 -1 0 -11 -24 -21 -52z"/>
<path d="M3860 1528 l0 -228 228 0 227 1 -62 24 c-169 65 -303 199 -368 368
l-24 62 -1 -227z"/>
<path d="M5076 1698 c-57 -164 -199 -308 -369 -373 l-62 -24 228 -1 227 0 0
225 c0 124 -1 225 -3 225 -1 0 -11 -24 -21 -52z"/>
<path d="M20 1033 l1 -228 24 62 c65 169 199 303 368 368 l62 24 -227 1 -228
0 0 -227z"/>
<path d="M867 1235 c169 -65 303 -199 368 -368 l24 -62 1 228 0 227 -227 0
-228 -1 62 -24z"/>
<path d="M1300 1033 l1 -228 24 62 c65 169 199 303 368 368 l62 24 -227 1
-228 0 0 -227z"/>
<path d="M2147 1235 c125 -48 237 -139 308 -250 20 -31 47 -84 60 -118 l24
-62 1 228 0 227 -227 0 -228 -1 62 -24z"/>
<path d="M2580 1033 l1 -228 24 62 c65 169 199 303 368 368 l62 24 -227 1
-228 0 0 -227z"/>
<path d="M3427 1235 c169 -65 303 -199 368 -368 l24 -62 1 228 0 227 -227 0
-228 -1 62 -24z"/>
<path d="M3860 1033 l1 -228 24 62 c65 169 199 303 368 368 l62 24 -227 1
-228 0 0 -227z"/>
<path d="M4707 1235 c169 -65 303 -199 368 -368 l24 -62 1 228 0 227 -227 0
-228 -1 62 -24z"/>
<path d="M497 1225 c-282 -72 -469 -324 -454 -615 12 -251 166 -455 407 -541
55 -20 85 -24 190 -24 105 0 135 4 190 24 181 64 317 200 381 381 20 55 24 85
24 190 0 105 -4 135 -24 190 -65 182 -202 319 -381 381 -83 28 -248 35 -333
14z"/>
<path d="M1777 1225 c-282 -72 -469 -324 -454 -615 12 -251 166 -455 407 -541
55 -20 85 -24 190 -24 105 0 135 4 190 24 181 64 317 200 381 381 20 55 24 85
24 190 0 105 -4 135 -24 190 -65 182 -202 319 -381 381 -83 28 -248 35 -333
14z"/>
<path d="M3057 1225 c-282 -72 -469 -324 -454 -615 12 -251 166 -455 407 -541
55 -20 85 -24 190 -24 105 0 135 4 190 24 181 64 317 200 381 381 20 55 24 85
24 190 0 105 -4 135 -24 190 -65 182 -202 319 -381 381 -83 28 -248 35 -333
14z"/>
<path d="M4337 1225 c-282 -72 -469 -324 -454 -615 12 -251 166 -455 407 -541
55 -20 85 -24 190 -24 105 0 135 4 190 24 181 64 317 200 381 381 20 55 24 85
24 190 0 105 -4 135 -24 190 -65 182 -202 319 -381 381 -83 28 -248 35 -333
14z"/>
<path d="M20 248 l0 -228 228 0 227 1 -62 24 c-169 65 -303 199 -368 368 l-24
62 -1 -227z"/>
<path d="M1236 418 c-57 -164 -199 -308 -369 -373 l-62 -24 228 -1 227 0 0
225 c0 124 -1 225 -3 225 -1 0 -11 -24 -21 -52z"/>
<path d="M1300 248 l0 -228 228 0 227 1 -62 24 c-169 65 -303 199 -368 368
l-24 62 -1 -227z"/>
<path d="M2516 418 c-57 -164 -199 -308 -369 -373 l-62 -24 228 -1 227 0 0
225 c0 124 -1 225 -3 225 -1 0 -11 -24 -21 -52z"/>
<path d="M2580 248 l0 -228 228 0 227 1 -62 24 c-169 65 -303 199 -368 368
l-24 62 -1 -227z"/>
<path d="M3796 418 c-57 -164 -199 -308 -369 -373 l-62 -24 228 -1 227 0 0
225 c0 124 -1 225 -3 225 -1 0 -11 -24 -21 -52z"/>
<path d="M3860 248 l0 -228 228 0 227 1 -62 24 c-169 65 -303 199 -368 368
l-24 62 -1 -227z"/>
<path d="M5076 418 c-57 -164 -199 -308 -369 -373 l-62 -24 228 -1 227 0 0
225 c0 124 -1 225 -3 225 -1 0 -11 -24 -21 -52z"/>
</g>
</svg>
