<?xml version="1.0" standalone="no"?>
<!DOCTYPE svg PUBLIC "-//W3C//DTD SVG 20010904//EN"
 "http://www.w3.org/TR/2001/REC-SVG-20010904/DTD/svg10.dtd">
<svg version="1.0" xmlns="http://www.w3.org/2000/svg"
 width="512.000000pt" height="512.000000pt" viewBox="0 0 512.000000 512.000000"
 preserveAspectRatio="xMidYMid meet">
<metadata>
Created by potrace 1.11, written by Peter Selinger 2001-2013
</metadata>
<g transform="translate(0.000000,512.000000) scale(0.100000,-0.100000)"
fill="#000000" stroke="none">
<path d="M200 4723 l0 -196 49 69 c60 85 196 220 281 280 l64 44 -197 0 -197
0 0 -197z"/>
<path d="M1132 4910 c-163 -23 -373 -110 -503 -209 -189 -144 -333 -361 -396
-596 -23 -89 -26 -118 -26 -265 0 -147 3 -176 27 -265 31 -119 115 -294 185
-386 62 -81 169 -184 252 -239 91 -62 235 -127 346 -157 87 -23 117 -26 263
-26 146 0 176 3 263 26 111 30 255 95 346 157 83 55 190 158 252 239 70 92
154 267 185 386 24 89 27 118 27 265 0 147 -3 176 -26 265 -63 235 -207 452
-396 596 -95 72 -267 154 -386 184 -112 29 -304 40 -413 25z"/>
<path d="M1980 4917 c0 -2 21 -19 48 -38 156 -112 292 -271 389 -454 l42 -80
1 288 0 287 -240 0 c-132 0 -240 -1 -240 -3z"/>
<path d="M2660 4633 l1 -288 42 80 c89 168 232 338 376 444 29 22 56 43 59 46
3 3 -103 5 -236 5 l-242 0 0 -287z"/>
<path d="M3692 4910 c-163 -23 -373 -110 -503 -209 -189 -144 -333 -361 -396
-596 -23 -89 -26 -118 -26 -265 0 -147 3 -176 27 -265 31 -119 115 -294 185
-386 62 -81 169 -184 252 -239 91 -62 235 -127 346 -157 87 -23 117 -26 263
-26 146 0 176 3 263 26 111 30 255 95 346 157 83 55 190 158 252 239 70 92
154 267 185 386 24 89 27 118 27 265 0 147 -3 176 -26 265 -63 235 -207 452
-396 596 -95 72 -267 154 -386 184 -112 29 -304 40 -413 25z"/>
<path d="M4586 4879 c102 -71 240 -211 304 -307 l30 -45 0 196 0 197 -197 0
-196 0 59 -41z"/>
<path d="M2412 3245 c-112 -219 -307 -415 -532 -534 l-95 -51 338 0 337 0 0
335 c0 184 -1 335 -2 335 -2 0 -22 -38 -46 -85z"/>
<path d="M2660 2998 l0 -338 338 0 337 0 -95 51 c-224 119 -410 305 -529 529
l-51 95 0 -337z"/>
<path d="M200 2902 l0 -242 288 0 287 1 -80 42 c-168 89 -338 232 -444 376
-22 29 -43 56 -46 59 -3 3 -5 -103 -5 -236z"/>
<path d="M4879 3093 c-112 -157 -271 -293 -454 -390 l-80 -42 288 -1 287 0 0
240 c0 132 -1 240 -3 240 -2 0 -19 -21 -38 -47z"/>
<path d="M200 2218 c0 -133 2 -239 5 -236 3 3 24 30 46 59 105 143 276 288
444 376 l80 42 -287 1 -288 0 0 -242z"/>
<path d="M1880 2409 c224 -119 410 -305 529 -529 l51 -95 0 338 0 337 -337 0
-338 0 95 -51z"/>
<path d="M2660 2123 l0 -338 51 95 c119 224 305 410 529 529 l95 51 -337 0
-338 0 0 -337z"/>
<path d="M4425 2417 c168 -88 339 -233 444 -376 22 -29 43 -56 46 -59 3 -3 5
103 5 236 l0 242 -287 0 -288 -1 80 -42z"/>
<path d="M1132 2350 c-163 -23 -373 -110 -503 -209 -189 -144 -333 -361 -396
-596 -23 -89 -26 -118 -26 -265 0 -147 3 -176 27 -265 31 -119 115 -294 185
-386 62 -81 169 -184 252 -239 91 -62 235 -127 346 -157 87 -23 117 -26 263
-26 146 0 176 3 263 26 111 30 255 95 346 157 83 55 190 158 252 239 70 92
154 267 185 386 24 89 27 118 27 265 0 147 -3 176 -26 265 -63 235 -207 452
-396 596 -95 72 -267 154 -386 184 -112 29 -304 40 -413 25z"/>
<path d="M3692 2350 c-163 -23 -373 -110 -503 -209 -189 -144 -333 -361 -396
-596 -23 -89 -26 -118 -26 -265 0 -147 3 -176 27 -265 31 -119 115 -294 185
-386 62 -81 169 -184 252 -239 91 -62 235 -127 346 -157 87 -23 117 -26 263
-26 146 0 176 3 263 26 111 30 255 95 346 157 83 55 190 158 252 239 70 92
154 267 185 386 24 89 27 118 27 265 0 147 -3 176 -26 265 -63 235 -207 452
-396 596 -95 72 -267 154 -386 184 -112 29 -304 40 -413 25z"/>
<path d="M2422 705 c-85 -174 -236 -351 -396 -465 l-48 -35 237 -3 c131 -1
240 -1 242 1 2 2 2 131 1 286 l-3 282 -33 -66z"/>
<path d="M2660 488 l0 -288 242 0 c133 0 238 4 233 8 -6 5 -37 29 -70 54 -140
106 -270 260 -354 418 l-51 95 0 -287z"/>
<path d="M4887 545 c-57 -90 -217 -250 -315 -315 l-45 -30 196 0 197 0 0 195
c0 107 -1 195 -2 195 -2 -1 -16 -21 -31 -45z"/>
<path d="M200 392 l0 -192 197 0 196 0 -69 49 c-77 54 -213 188 -273 270 -22
29 -43 56 -46 59 -3 3 -5 -81 -5 -186z"/>
</g>
</svg>
